<svg width="12" height="11" xmlns="http://www.w3.org/2000/svg">
<path
    d="M7.1.04a2.119 2.119 0 0 0-.628.304C6.267.493.834 4.765.683 4.896a1.983 1.983 0 0 0-.409.504c-.253.467-.221 1.028.085 1.49.109.164.847 1.108.867 1.109.01.001.113-.074.23-.167.118-.092.264-.193.324-.225.1-.052.129-.057.31-.057.255 0 .364.044.515.209.141.153.183.271.171.487a.69.69 0 0 1-.186.46 8.735 8.735 0 0 1-.487.406c-.015.011.79 1.022.906 1.139.306.307.651.456 1.051.453.327-.003.644-.115.949-.335.162-.116 5.52-4.328 5.759-4.527.286-.237.5-.56.586-.882a1.455 1.455 0 0 0-.023-.72 1.867 1.867 0 0 0-.277-.54c-.176-.237-.781-1-.792-.999-.007 0-.102.072-.212.159-.11.088-.254.189-.32.225-.114.062-.131.065-.33.065-.189 0-.221-.006-.323-.056a.672.672 0 0 1-.357-.727c.05-.241.124-.341.434-.588l.244-.194-.391-.497C8.576.539 8.449.399 8.27.271a1.24 1.24 0 0 0-.78-.263A1.103 1.103 0 0 0 7.1.04M5.708 1.952c.101.132.17.238.16.248-.01.009-.184.148-.388.309l-.37.292-.074-.082a4.646 4.646 0 0 1-.188-.231c-.099-.129-.111-.154-.086-.177.049-.048.747-.591.758-.59.005.001.09.105.188.231m1.1 1.407c.095.12.172.227.172.238 0 .011-.172.155-.383.32l-.384.3-.178-.227a2.865 2.865 0 0 1-.177-.239c.001-.015.746-.607.765-.61.007 0 .09.097.185.218M7.927 4.78c.095.121.173.227.172.235-.001.019-.751.605-.773.604-.013-.001-.163-.185-.332-.409l-.035-.047.382-.302c.21-.165.389-.301.397-.301.008 0 .093.099.189.22m1.11 1.409c.101.125.183.233.183.238 0 .013-.737.593-.768.605-.036.014-.388-.442-.362-.469.012-.011.757-.6.762-.602.001-.001.085.102.185.228"
    fill="#334DCF"
    fillRule="evenodd"
></path>
</svg>